<svg width="12" height="10" viewBox="0 0 12 10" fill="none" xmlns="http://www.w3.org/2000/svg">
<path d="M8.58333 3.16667V2.08333C8.58333 1.79602 8.4692 1.52047 8.26603 1.3173C8.06287 1.11414 7.78732 1 7.5 1H2.08333C1.79602 1 1.52047 1.11414 1.3173 1.3173C1.11414 1.52047 1 1.79602 1 2.08333V5.33333C1 5.62065 1.11414 5.8962 1.3173 6.09937C1.52047 6.30253 1.79602 6.41667 2.08333 6.41667H3.16667M4.25 8.58333H9.66667C9.95398 8.58333 10.2295 8.4692 10.4327 8.26603C10.6359 8.06287 10.75 7.78732 10.75 7.5V4.25C10.75 3.96268 10.6359 3.68713 10.4327 3.48397C10.2295 3.2808 9.95398 3.16667 9.66667 3.16667H4.25C3.96268 3.16667 3.68713 3.2808 3.48397 3.48397C3.2808 3.68713 3.16667 3.96268 3.16667 4.25V7.5C3.16667 7.78732 3.2808 8.06287 3.48397 8.26603C3.68713 8.4692 3.96268 8.58333 4.25 8.58333ZM8.04167 5.875C8.04167 6.16232 7.92753 6.43787 7.72437 6.64103C7.5212 6.8442 7.24565 6.95833 6.95833 6.95833C6.67102 6.95833 6.39547 6.8442 6.1923 6.64103C5.98914 6.43787 5.875 6.16232 5.875 5.875C5.875 5.58768 5.98914 5.31213 6.1923 5.10897C6.39547 4.9058 6.67102 4.79167 6.95833 4.79167C7.24565 4.79167 7.5212 4.9058 7.72437 5.10897C7.92753 5.31213 8.04167 5.58768 8.04167 5.875Z" stroke="#E4E9F1" stroke-linecap="round" stroke-linejoin="round"/>
</svg>
