<svg width="7" height="7" viewBox="0 0 7 7" fill="none" xmlns="http://www.w3.org/2000/svg">
<path d="M3.8052 2.65088C3.92033 2.70588 4.02822 2.78106 4.12358 2.87642C4.57419 3.32702 4.57419 4.05759 4.12358 4.5082L2.96974 5.66205C2.51913 6.11265 1.78856 6.11265 1.33795 5.66205C0.887349 5.21144 0.887349 4.48087 1.33795 4.03026L1.78846 3.57976M5.21154 3.42024L5.66205 2.96974C6.11265 2.51913 6.11265 1.78856 5.66205 1.33795C5.21144 0.887349 4.48087 0.887349 4.03026 1.33795L2.87642 2.4918C2.42581 2.94241 2.42581 3.67298 2.87642 4.12358C2.97178 4.21895 3.07967 4.29412 3.19481 4.34912" stroke="#E4E9F1" stroke-width="0.5" stroke-linecap="round" stroke-linejoin="round"/>
</svg>
