<svg width="10" height="10" viewBox="0 0 10 10" fill="none" xmlns="http://www.w3.org/2000/svg">
<path d="M7.18182 3.18182V2.09091C7.18182 1.48842 6.6934 1 6.09091 1H2.09091C1.48842 1 1 1.48842 1 2.09091V6.09091C1 6.6934 1.48842 7.18182 2.09091 7.18182H3.18182M7.18182 3.18182H7.90909C8.51158 3.18182 9 3.67023 9 4.27273V7.90909C9 8.51158 8.51158 9 7.90909 9H4.27273C3.67023 9 3.18182 8.51158 3.18182 7.90909V7.18182M7.18182 3.18182H4.27273C3.67023 3.18182 3.18182 3.67023 3.18182 4.27273V7.18182" stroke="#E4E9F1" stroke-linecap="round" stroke-linejoin="round"/>
</svg>
