<svg viewBox="0 0 10 10" fill="none" xmlns="http://www.w3.org/2000/svg">
<path d="M4.2637 1.4178C4.30388 1.17671 4.51248 1 4.7569 1H5.2431C5.48752 1 5.69612 1.17671 5.7363 1.4178L5.80251 1.81505C5.83394 2.00361 5.97302 2.15484 6.14957 2.22814C6.3262 2.30148 6.52902 2.29168 6.68464 2.18052L7.01245 1.94637C7.21135 1.80431 7.4838 1.82685 7.65663 1.99968L8.00043 2.34348C8.17326 2.51631 8.19581 2.78876 8.05374 2.98766L7.81951 3.31558C7.70838 3.47116 7.69858 3.67392 7.77189 3.8505C7.84517 4.02701 7.99636 4.16606 8.18488 4.19748L8.5822 4.2637C8.82329 4.30388 9 4.51248 9 4.7569V5.2431C9 5.48752 8.82329 5.69612 8.5822 5.7363L8.18494 5.80251C7.99638 5.83394 7.84516 5.97301 7.77186 6.14956C7.69853 6.32619 7.70832 6.529 7.81948 6.68462L8.05359 7.01237C8.19565 7.21126 8.17311 7.48371 8.00027 7.65655L7.65648 8.00034C7.48364 8.17318 7.2112 8.19572 7.0123 8.05366L6.68448 7.8195C6.52889 7.70836 6.32611 7.69856 6.14952 7.77188C5.97299 7.84517 5.83394 7.99636 5.80252 8.1849L5.7363 8.5822C5.69612 8.82329 5.48752 9 5.2431 9H4.7569C4.51248 9 4.30388 8.82329 4.2637 8.5822L4.19749 8.18494C4.16606 7.99638 4.02699 7.84516 3.85044 7.77186C3.67381 7.69853 3.471 7.70832 3.31538 7.81948L2.98755 8.05365C2.78865 8.19571 2.5162 8.17316 2.34337 8.00033L1.99957 7.65653C1.82674 7.4837 1.80419 7.21125 1.94626 7.01236L2.1805 6.68443C2.29163 6.52885 2.30143 6.32608 2.22811 6.1495C2.15483 5.97299 2.00364 5.83394 1.81512 5.80252L1.4178 5.7363C1.17671 5.69612 1 5.48752 1 5.2431V4.7569C1 4.51248 1.17671 4.30388 1.4178 4.2637L1.81505 4.19749C2.00361 4.16606 2.15484 4.02698 2.22814 3.85043C2.30148 3.6738 2.29168 3.47098 2.18052 3.31535L1.94644 2.98763C1.80437 2.78874 1.82692 2.51629 1.99975 2.34346L2.34355 1.99966C2.51638 1.82682 2.78883 1.80428 2.98772 1.94634L3.31554 2.1805C3.47113 2.29163 3.6739 2.30143 3.85049 2.22812C4.02701 2.15483 4.16606 2.00364 4.19748 1.81511L4.2637 1.4178Z" stroke="#9CA3AF" stroke-width="0.5" stroke-linecap="round" stroke-linejoin="round"/>
<path d="M6.33364 5.00001C6.33364 5.73639 5.73669 6.33334 5.00031 6.33334C4.26393 6.33334 3.66698 5.73639 3.66698 5.00001C3.66698 4.26363 4.26393 3.66668 5.00031 3.66668C5.73669 3.66668 6.33364 4.26363 6.33364 5.00001Z" stroke="#9CA3AF" stroke-width="0.5" stroke-linecap="round" stroke-linejoin="round"/>
</svg>
